<?xml version="1.0" encoding="UTF-8"?>
<svg id="_레이어_1" data-name="레이어 1" xmlns="http://www.w3.org/2000/svg" xmlns:xlink="http://www.w3.org/1999/xlink" viewBox="0 0 30 30">
  <defs>
    <style>
      .cls-1, .cls-2, .cls-3 {
        stroke-width: 0px;
      }

      .cls-2 {
        filter: url(#drop-shadow-1);
      }

      .cls-2, .cls-3 {
        fill: #088a08;
      }

      .cls-3 {
        filter: url(#drop-shadow-2);
      }
    </style>
    <filter id="drop-shadow-1" filterUnits="userSpaceOnUse">
      <feOffset dx=".5" dy=".5"/>
      <feGaussianBlur result="blur" stdDeviation="0"/>
      <feFlood flood-color="#000" flood-opacity=".75"/>
      <feComposite in2="blur" operator="in"/>
      <feComposite in="SourceGraphic"/>
    </filter>
    <filter id="drop-shadow-2" filterUnits="userSpaceOnUse">
      <feOffset dx=".5" dy=".5"/>
      <feGaussianBlur result="blur-2" stdDeviation="0"/>
      <feFlood flood-color="#000" flood-opacity=".75"/>
      <feComposite in2="blur-2" operator="in"/>
      <feComposite in="SourceGraphic"/>
    </filter>
  </defs>
  <path class="cls-2" d="m18.5,12.8c.02.15.02.31.02.46,0,1.36-.85,2.74-2.58,4.16-.68.57-1.38,1.01-2.1,1.36-.61.31-1.25.53-1.91.66-.46.09-.96.13-1.45.13-.53,0-.94-.09-1.25-.22-.31-.13-.46-.31-.46-.48,0-.9.64-1.36,1.91-1.36.18,0,.46.02.83.02.2.02.44,0,.68-.07.18-.04.39-.11.61-.2.46-.2.94-.44,1.38-.74.02,0,.02-.02.04-.02.48-.31.88-.64,1.2-.96s.59-.68.79-1.05c.22-.37.31-.74.31-1.12,0-.09,0-.18-.02-.26-.07-.5-.33-.96-.77-1.38-.07-.07-.13-.11-.2-.13-.5-.39-1.16-.59-1.93-.59-.13,0-.48.13-1.01.35-.55.24-.9.35-1.05.35-.57,0-.9-.07-1.05-.22-.13-.13-.2-.39-.2-.74,0-.22.59-.59,1.8-1.07,1.01-.39,1.99-1.05,2.93-1.95.94-.92,1.4-1.69,1.4-2.3,0-.44-.18-.79-.53-1.05-.35-.24-.85-.37-1.49-.37-1.07,0-2.12.13-3.18.37-1.05.26-1.62.53-1.73.74-.09.22-.39,1.95-.88,5.17-.46,3.24-.7,5.1-.7,5.61s0,.96.02,1.4c.02.42-.04.79-.22,1.12-.18.31-.48.46-.9.46-.39,0-.68-.15-.9-.46-.2-.31-.31-.68-.31-1.14,0-.13.02-.31.09-.57.37-1.53.72-3.48,1.05-5.87.33-2.39.48-3.77.48-4.14,0-.31-.02-.53-.11-.68-.09-.13-.26-.2-.57-.2h-.33c-.11,0-.22-.07-.33-.2-.11-.15-.18-.31-.18-.53,0-.61,1.01-1.23,3.02-1.84,2.01-.61,4.07-.92,6.15-.92,1.07,0,1.95.31,2.63.88.68.57,1.03,1.25,1.03,2.01,0,.57-.31,1.25-.88,2.01-.59.77-1.36,1.51-2.32,2.23,0,.11.07.2.2.22.79.22,1.47.66,2.06,1.29.07.07.13.15.2.24.37.46.57.99.66,1.58Z"/>
  <path class="cls-3" d="m20.73,18.12c-.15-.02-.22-.11-.22-.22.96-.72,1.75-1.47,2.32-2.23.59-.77.88-1.45.88-2.01,0-.77-.35-1.45-1.03-2.01-.68-.57-1.55-.88-2.63-.88-.74,0-1.49.04-2.21.13.37.46.57.99.66,1.58.35-.02.7-.04,1.05-.04.64,0,1.14.11,1.49.37.37.26.55.61.55,1.05,0,.61-.48,1.38-1.42,2.3-.94.9-1.93,1.55-2.91,1.95-1.2.48-1.82.85-1.82,1.07,0,.35.07.61.22.74.13.15.48.22,1.03.22.18,0,.53-.11,1.05-.35.53-.22.88-.35,1.01-.35.9,0,1.6.24,2.12.72.55.48.81,1.03.81,1.64,0,.37-.11.74-.31,1.12-.2.37-.48.72-.81,1.05-.33.33-.72.66-1.18.96-.46.31-.94.57-1.42.77-.5.2-.92.28-1.29.26-.39,0-.66-.02-.83-.02-1.27,0-1.91.46-1.91,1.36,0,.18.15.35.44.48.31.13.72.22,1.27.22,1.91,0,3.72-.72,5.43-2.15,1.73-1.42,2.61-2.8,2.61-4.16,0-.88-.31-1.64-.9-2.28-.59-.64-1.27-1.07-2.04-1.29Zm-8.83,1.14c-.33,2.39-.68,4.34-1.03,5.87-.07.26-.11.44-.11.57,0,.46.11.83.33,1.14.2.31.5.46.88.46.44,0,.72-.15.9-.46.18-.33.26-.7.24-1.12-.02-.44-.04-.9-.04-1.4s.24-2.37.72-5.61c.02-.09.02-.18.04-.26-.61.31-1.25.53-1.91.66,0,.04-.02.11-.02.15Z"/>
  <g>
    <path class="cls-1" d="m9.87,21.6c.08.03.14.05.2.05.05,0,.1,0,.16-.02.07-.02.12-.04.16-.06.03-.02.07-.05.1-.08.03-.03.06-.07.09-.11.02-.04.04-.09.05-.15,0-.05.02-.11.02-.17,0-.07.01-.14.02-.19.02-.1.03-.18.03-.22,0-.13-.08-.17-.15-.17-.04,0-.15.09-.16.13-.02.04-.03.11-.05.35-.01.19-.03.27-.12.38-.02,0-.04.01-.07.01-.04,0-.09,0-.17-.03-.03-.02-.05-.08-.05-.17,0-.03,0-.09.02-.18.01-.08.02-.14.03-.17.03-.11.03-.13,0-.24-.04-.07-.09-.08-.12-.08-.03,0-.09.03-.11.04-.01.01-.05.07-.06.09,0,.02-.02.08-.05.28-.02.13-.03.22-.03.27,0,.1.02.19.06.27.04.09.11.16.19.2Z"/>
    <path class="cls-1" d="m10.55,22.01c-.07,0-.13.04-.19.12-.03.04-.12.14-.26.28,0,0,0,0-.01.01-.03-.03-.07-.08-.12-.15-.04-.05-.08-.09-.13-.14-.07-.06-.12-.09-.17-.09-.02,0-.09.03-.11.04-.02.02-.05.08-.05.1,0,.02.02.08.03.1.01.02.03.04.16.15.02.02.04.05.08.1.06.09.12.15.13.18,0,.02,0,.08-.02.15-.02.1-.02.16-.02.2,0,.06.1.18.15.18l.14-.05s.03-.1.04-.12l.02-.23c.01-.11.02-.14.02-.14h0s.02-.03.11-.12c.14-.15.23-.25.27-.29.05-.06.07-.1.05-.23-.02-.03-.08-.07-.12-.07Z"/>
  </g>
  <g>
    <path class="cls-1" d="m19.57,8.56c-.07,0-.14.04-.21.13-.03.05-.14.16-.3.33l-.03.03s-.08-.09-.15-.19c-.04-.06-.1-.11-.15-.16-.07-.07-.13-.1-.19-.1-.03,0-.07,0-.11.04-.02.02-.06.08-.06.11,0,.02.02.09.04.11.01.02.04.04.18.16.02.02.05.06.1.12.07.1.13.17.16.22,0,.03,0,.09-.02.18-.02.11-.03.19-.03.23,0,.15.09.2.16.2l.14-.05s.04-.11.04-.13l.03-.27c.01-.14.03-.17.03-.17,0,0,.02-.03.13-.14.17-.18.27-.29.31-.33.06-.07.08-.11.06-.25-.02-.03-.09-.07-.12-.07Z"/>
    <path class="cls-1" d="m20.51,8.99s.03,0,.15-.01c.07,0,.12,0,.19-.01,0,0,.18-.02.19-.02,0,0,.1-.05.11-.05.04-.04.05-.09.05-.13,0-.03-.05-.12-.07-.13-.02-.02-.05-.03-.13-.03-.02,0-.04,0-.07,0-.14.02-.26.04-.36.05-.09,0-.15.01-.17.01v.1s0,0,0,0l-.17-.08s-.07.08-.07.12l.04.1c0,.07-.01.16-.05.36,0,.06-.02.14-.03.23-.02.09-.03.16-.04.19,0,.01-.02.11-.01.12,0,.03.05.13.07.15.03.02.08.03.17.03.03,0,.08,0,.17-.02.15-.02.26-.03.32-.04.1,0,.18-.02.26-.06.03-.02.05-.09.05-.12,0-.06-.02-.11-.07-.14-.02-.01-.08-.04-.1-.04s-.05,0-.15.02l-.16.03-.2.08s.03-.2.03-.21c.03,0,.09-.02.2-.03.14-.02.23-.03.28-.04.05-.01.14-.13.14-.18,0-.03,0-.15-.2-.15-.05,0-.11,0-.19.03-.03,0-.17.02-.18.03,0-.02,0-.04.02-.07,0-.04.02-.08,0-.1Z"/>
  </g>
</svg>