<?xml version="1.0" encoding="UTF-8"?>
<svg id="_레이어_1" data-name="레이어 1" xmlns="http://www.w3.org/2000/svg" viewBox="0 0 1221.82 234.37">
  <defs>
    <style>
      .cls-1 {
        stroke-width: 0px;
      }
    </style>
  </defs>
  <path class="cls-1" d="m139.06,110.21c3.56-2.95,6.81-6.56,9.67-10.75,2.93-4.28,5.42-9.35,7.39-15.07,2.04-5.88,3.07-12.67,3.07-20.18,0-8.79-1.57-17.18-4.67-24.94-3.16-7.89-7.96-14.86-14.26-20.72-6.25-5.8-14.13-10.4-23.43-13.69-9.14-3.23-19.77-4.86-31.61-4.86H0v229.63h85.22c2.14,0,5.39-.1,9.66-.3,4.6-.21,9.73-.91,15.24-2.08,5.55-1.17,11.43-3.05,17.47-5.6,6.45-2.71,12.35-6.66,17.54-11.74,5.18-5.06,9.54-11.5,12.97-19.12,3.45-7.69,5.31-17.07,5.53-27.91.22-12.51-2.64-24.17-8.48-34.66-4.04-7.24-9.43-13.27-16.09-18.01ZM37.29,33.73h47.94c13.02,0,22.38,2.87,27.8,8.52,5.59,5.83,8.3,13.01,8.3,21.96,0,5.69-.97,10.48-2.89,14.24-1.99,3.9-4.52,7.01-7.73,9.52-3.23,2.52-7.02,4.37-11.25,5.48-4.58,1.21-9.37,1.83-14.24,1.83h-47.94v-61.55Zm78.91,153.78c-6.79,5.56-17.21,8.39-30.97,8.39h-47.94v-66.88h47.94c13.62,0,24.03,2.75,30.94,8.19,6.46,5.08,9.6,13.43,9.6,25.55,0,11.38-3.13,19.48-9.57,24.76Z"/>
  <path class="cls-1" d="m328.46,153.58c0,7.94-1.36,14.91-4.05,20.71-2.7,5.82-6.31,10.71-10.72,14.54-4.49,3.9-9.6,6.86-15.19,8.81-5.69,1.99-11.54,2.99-17.39,2.99s-11.7-1.01-17.4-2.99c-5.57-1.94-10.61-4.88-14.99-8.76-4.34-3.83-7.91-8.74-10.62-14.59-2.69-5.79-4.05-12.86-4.05-21V0h-37.58v153.58c0,12.9,2.43,24.53,7.23,34.56,4.76,9.97,11.27,18.51,19.34,25.38,7.95,6.77,17.05,12,27.03,15.54,9.93,3.52,20.37,5.31,31.03,5.31s20.83-1.78,30.86-5.3c10.1-3.54,19.21-8.79,27.09-15.58,7.93-6.85,14.41-15.35,19.27-25.28,4.92-10.05,7.41-21.7,7.41-34.62V0h-37.29v153.58Z"/>
  <polygon class="cls-1" points="525.08 0 471.09 95.1 417.1 0 375.8 0 452.16 133.94 452.16 229.63 489.74 229.63 489.74 133.94 566.09 0 525.08 0"/>
  <rect class="cls-1" x="545.96" y="95.88" width="123.1" height="33.73"/>
  <path class="cls-1" d="m834.16,110.21c3.56-2.95,6.81-6.56,9.68-10.75,2.93-4.28,5.41-9.35,7.39-15.07,2.04-5.88,3.07-12.67,3.07-20.18,0-8.8-1.57-17.19-4.67-24.94-3.16-7.89-7.95-14.86-14.26-20.72-6.25-5.8-14.13-10.4-23.43-13.69-9.14-3.23-19.77-4.86-31.61-4.86h-85.22v229.63h85.22c2.14,0,5.39-.1,9.66-.3,4.6-.21,9.73-.91,15.24-2.08,5.55-1.17,11.43-3.05,17.47-5.6,6.45-2.72,12.35-6.67,17.54-11.74,5.18-5.06,9.54-11.5,12.97-19.12,3.45-7.69,5.31-17.07,5.53-27.91.22-12.51-2.64-24.17-8.48-34.66-4.04-7.24-9.43-13.27-16.09-18.01Zm-101.78-76.48h47.94c13.02,0,22.38,2.87,27.8,8.52,5.58,5.83,8.3,13.01,8.3,21.96,0,5.69-.97,10.48-2.89,14.24-1.99,3.9-4.52,7.01-7.73,9.52-3.24,2.52-7.02,4.37-11.25,5.48-4.58,1.21-9.37,1.83-14.24,1.83h-47.94v-61.55Zm78.91,153.78c-6.79,5.56-17.21,8.39-30.97,8.39h-47.94v-66.88h47.94c13.62,0,24.03,2.75,30.94,8.19,6.46,5.08,9.6,13.43,9.6,25.55,0,11.38-3.13,19.48-9.57,24.76Z"/>
  <polygon class="cls-1" points="958.46 95.1 904.47 0 863.17 0 939.52 133.94 939.52 229.63 977.1 229.63 977.1 133.94 1053.46 0 1012.45 0 958.46 95.1"/>
  <polygon class="cls-1" points="1221.82 33.73 1221.82 0 1063.51 0 1063.51 229.63 1221.82 229.63 1221.82 195.9 1101.09 195.9 1101.09 129.02 1205.25 129.02 1205.25 95.29 1101.09 95.29 1101.09 33.73 1221.82 33.73"/>
</svg>